<svg width="78" height="83" xmlns="http://www.w3.org/2000/svg"><path fill="#fff" d="M0 0h78v83H0z"/><path d="M34.013 10.8V36h-4.788L16.66 20.7V36H10.9V10.8h4.824l12.528 15.3V10.8h5.76ZM56.57 30.6h-11.7L42.639 36h-5.976l11.232-25.2h5.76L64.923 36h-6.12l-2.232-5.4Zm-1.836-4.428-3.996-9.648-3.996 9.648h7.992ZM33.833 72l-.036-15.12-7.416 12.456h-2.628l-7.38-12.132V72H10.9V46.8h4.824l9.432 15.66 9.288-15.66h4.788l.072 25.2h-5.472Zm22.646.432c-3.6 0-6.408-.996-8.424-2.988-1.992-1.992-2.988-4.836-2.988-8.532V46.8H50.9v13.896c0 4.512 1.872 6.768 5.616 6.768 1.824 0 3.216-.54 4.176-1.62.96-1.104 1.44-2.82 1.44-5.148V46.8h5.76v14.112c0 3.696-1.008 6.54-3.024 8.532-1.992 1.992-4.788 2.988-8.388 2.988Z" fill="#0F0E08"/></svg>